<?xml version="1.0" standalone="no"?>
<!DOCTYPE svg PUBLIC "-//W3C//DTD SVG 20010904//EN"
 "http://www.w3.org/TR/2001/REC-SVG-20010904/DTD/svg10.dtd">
<svg version="1.0" xmlns="http://www.w3.org/2000/svg"
 width="730.000000pt" height="730.000000pt" viewBox="0 0 730.000000 730.000000"
 preserveAspectRatio="xMidYMid meet">
<metadata>
Created by potrace 1.14, written by Peter Selinger 2001-2017
</metadata>
<g transform="translate(0.000000,730.000000) scale(0.100000,-0.100000)"
fill="#000000" stroke="none">
<path d="M1274 5185 c-65 -15 -151 -71 -197 -127 -50 -62 -103 -180 -115 -258
-5 -36 -9 -109 -8 -162 2 -82 -1 -98 -14 -99 -8 -1 -76 -3 -150 -4 -74 -1
-145 -3 -158 -4 -33 -2 -78 -51 -91 -97 -5 -21 -12 -73 -16 -114 -11 -145 -16
-196 -30 -335 -2 -27 -7 -81 -10 -120 -2 -38 -7 -92 -10 -120 -7 -65 -12 -119
-20 -230 -4 -49 -8 -100 -10 -112 -2 -12 -7 -61 -10 -110 -4 -48 -8 -95 -10
-103 -2 -8 -6 -60 -10 -115 -4 -55 -8 -111 -10 -125 -3 -14 -7 -59 -10 -100
-3 -41 -8 -95 -10 -120 -2 -25 -7 -81 -10 -125 -4 -44 -8 -87 -10 -95 -11 -42
-16 -228 -7 -251 14 -36 72 -91 88 -85 8 3 14 2 14 -2 0 -5 1115 -7 1876 -2
52 0 65 4 90 28 57 52 60 71 38 307 -2 28 -7 75 -9 105 -3 30 -7 79 -10 108
-13 139 -19 203 -30 337 -6 75 -12 141 -19 220 -3 28 -8 82 -11 120 -3 39 -8
90 -10 115 -3 25 -7 74 -10 110 -3 36 -7 85 -10 110 -2 25 -7 79 -10 120 -4
41 -8 91 -10 110 -2 19 -7 73 -11 120 -3 47 -8 99 -10 115 -1 17 -5 68 -9 115
-4 47 -11 103 -17 124 -11 45 -59 95 -92 97 -11 1 -68 2 -126 2 l-105 1 -30
51 c-22 37 -30 64 -32 105 -2 55 -8 109 -18 165 -10 52 -73 168 -118 216 -86
93 -196 137 -311 124 -33 -3 -62 -8 -65 -10 -2 -3 -11 1 -19 8 -11 8 -14 8 -9
0 4 -6 3 -14 -3 -18 -5 -3 -10 -2 -10 3 0 17 -23 19 -76 7z m66 -16 c0 -5 -6
-9 -13 -9 -17 0 -110 -91 -147 -144 -55 -81 -88 -192 -91 -314 -2 -50 -6 -65
-21 -73 -10 -6 -16 -14 -13 -20 4 -5 5 -9 3 -9 -2 0 -17 -4 -34 -9 l-31 -9 2
87 c4 117 12 165 41 235 24 60 60 114 101 153 34 33 93 76 93 69 0 -4 6 -1 14
6 8 7 11 18 8 23 -3 6 1 5 9 -2 11 -9 18 -8 31 1 10 7 15 16 11 20 -4 4 1 4
11 0 15 -6 17 -4 11 6 -5 9 -4 11 3 6 7 -4 12 -11 12 -17z m200 -29 c3 -1 9
-2 14 -1 4 1 30 -5 56 -14 102 -34 203 -158 237 -290 12 -49 15 -163 4 -169
-7 -4 -9 -1 -5 8 5 14 -25 38 -43 35 -4 -1 -19 -1 -32 0 -18 1 -21 4 -13 14
20 23 -11 162 -54 245 -29 56 -103 142 -122 142 -6 0 -12 5 -12 10 0 6 -5 10
-11 10 -5 0 -7 -6 -3 -12 4 -7 -1 -6 -12 3 -10 9 -28 16 -38 16 -16 0 -13 -6
15 -26 65 -49 122 -116 151 -177 28 -61 63 -197 55 -218 -6 -15 -414 -14 -443
2 -16 8 -25 8 -40 -2 -10 -6 -30 -11 -44 -11 -14 1 -35 -4 -47 -12 -22 -13
-22 -13 -18 50 5 85 11 112 45 185 48 102 152 192 245 212 28 5 104 6 115 0z"/>
<path d="M6165 4657 c-58 -13 -143 -74 -182 -130 -125 -183 -85 -506 74 -607
67 -42 115 -53 205 -47 96 8 138 27 131 59 -10 48 -9 47 -61 33 -67 -17 -142
-12 -197 15 -87 42 -131 131 -134 275 -3 152 43 250 141 299 60 30 132 34 195
12 l40 -14 10 33 c6 18 8 38 4 43 -19 31 -147 47 -226 29z"/>
<path d="M2948 4650 c-7 -3 -14 -16 -14 -30 -2 -44 -16 -293 -19 -340 -1 -25
-6 -103 -10 -175 -4 -71 -8 -151 -10 -177 l-3 -48 39 0 c24 0 39 5 40 13 4 35
7 98 14 252 5 94 9 186 10 205 2 19 3 68 4 109 1 76 6 88 15 37 13 -70 158
-585 171 -606 3 -5 18 -7 33 -6 26 3 29 10 99 237 39 129 82 273 94 321 13 48
24 86 26 84 2 -2 6 -53 8 -112 5 -161 17 -425 20 -459 2 -16 3 -40 4 -52 1
-20 6 -23 41 -23 l40 0 -5 103 c-3 56 -7 140 -10 187 -3 47 -7 130 -10 185 -9
178 -16 289 -21 296 -3 6 -94 2 -101 -4 -8 -9 -134 -426 -163 -542 -17 -68
-17 -69 -28 -42 -7 15 -14 41 -17 57 -3 16 -26 100 -51 187 -25 87 -47 165
-49 173 -2 8 -11 40 -20 70 -9 30 -19 65 -22 78 -3 12 -10 22 -17 23 -44 4
-76 4 -88 -1z"/>
<path d="M3844 4645 c-7 -5 -25 -55 -40 -110 -31 -114 -32 -118 -112 -400 -33
-115 -62 -220 -65 -232 -5 -21 -2 -23 37 -23 l43 0 33 120 c31 114 34 120 59
121 101 3 194 -1 200 -8 4 -4 13 -26 19 -48 6 -22 20 -73 32 -112 l21 -73 39
0 c50 0 50 3 10 141 -17 57 -37 127 -44 154 -8 28 -35 122 -60 210 -26 88 -51
178 -57 200 -6 22 -14 46 -18 54 -9 17 -77 21 -97 6z m90 -266 c25 -91 46
-169 46 -172 0 -3 -43 -6 -95 -6 -53 0 -94 3 -91 7 3 5 7 19 10 33 11 48 80
308 82 306 1 -1 22 -77 48 -168z"/>
<path d="M4140 4640 c0 -14 10 -51 61 -235 11 -38 22 -79 24 -90 7 -32 77
-285 107 -385 13 -45 13 -45 58 -45 l44 0 17 50 c9 28 30 95 47 150 60 200
114 381 132 445 11 36 24 78 29 93 9 23 8 27 -7 28 -28 2 -74 0 -76 -3 -3 -3
-162 -571 -175 -623 -7 -29 -8 -28 -20 25 -7 30 -33 132 -58 225 -25 94 -47
179 -49 190 -2 11 -15 58 -27 104 l-24 84 -41 1 c-31 1 -42 -2 -42 -14z"/>
<path d="M4737 4645 c-2 -5 -3 -179 -3 -385 l1 -375 180 0 180 0 3 38 c4 43
18 39 -153 41 l-120 1 -3 138 -3 137 126 0 125 0 0 40 c0 25 -5 41 -12 42 -7
0 -62 1 -123 2 l-110 1 -3 123 -3 122 131 0 c71 0 130 3 131 8 7 65 6 72 -20
73 -168 5 -321 2 -324 -6z"/>
<path d="M5245 4652 c-11 -2 -24 -8 -30 -12 -6 -5 -9 -141 -9 -377 1 -202 2
-372 3 -376 1 -5 18 -7 39 -5 l37 3 5 165 5 165 45 0 c62 0 114 -26 130 -66 8
-17 25 -84 39 -148 l26 -116 43 -3 c23 -2 42 -2 42 0 0 2 -13 62 -28 134 -31
140 -53 196 -86 220 -15 12 -17 17 -8 21 53 20 104 111 104 185 1 109 -58 187
-155 208 -50 10 -153 11 -202 2z m236 -115 c50 -50 48 -157 -4 -204 -35 -32
-58 -40 -124 -42 l-63 -2 0 140 c0 138 0 141 23 146 77 17 124 6 168 -38z"/>
<path d="M5758 4652 l-38 -3 -1 -300 c0 -164 0 -324 0 -354 0 -124 -4 -115 41
-115 38 0 40 1 41 33 2 119 0 739 -3 740 -2 1 -20 1 -40 -1z"/>
<path d="M6522 4652 l-23 -3 3 -382 3 -382 40 0 40 0 1 147 c0 144 1 147 28
183 22 29 31 34 42 24 8 -6 14 -15 14 -19 0 -4 42 -81 93 -171 l93 -164 47 -3
c52 -3 55 0 29 43 -10 17 -33 57 -51 90 -18 33 -64 114 -102 181 -38 66 -69
124 -69 127 0 7 85 130 172 248 26 37 48 71 48 76 0 7 -42 9 -92 4 -3 -1 -61
-82 -127 -181 -67 -99 -121 -179 -122 -178 0 2 -2 82 -3 178 -2 96 -4 177 -4
180 -2 6 -25 7 -60 2z"/>
<path d="M3028 3725 c-2 -1 -31 -5 -66 -8 -35 -2 -66 -8 -70 -11 -3 -4 -6
-175 -6 -381 l-1 -373 30 -5 c17 -2 75 -5 130 -5 262 -2 409 90 460 287 28
109 13 248 -36 328 -48 80 -122 130 -224 153 -45 10 -210 21 -217 15z m207
-100 c70 -23 118 -63 150 -130 34 -69 39 -189 10 -279 -25 -78 -90 -146 -165
-171 -51 -17 -205 -30 -233 -19 -9 3 -12 74 -10 297 1 160 2 297 2 304 2 25
164 23 246 -2z"/>
<path d="M3760 3723 c-14 -2 -44 -6 -67 -9 l-43 -5 0 -378 0 -379 28 -3 c15
-2 37 -3 50 -1 22 3 22 5 22 168 l0 164 66 0 c119 0 157 -37 189 -185 26 -118
41 -152 68 -149 12 1 35 3 51 3 23 1 27 4 21 19 -4 9 -20 65 -35 124 -33 127
-56 176 -96 203 l-30 19 46 31 c150 101 112 324 -63 366 -48 11 -155 17 -207
12z m191 -97 c46 -21 72 -66 71 -123 -2 -94 -67 -143 -194 -146 l-73 -1 -3
139 c-2 103 1 140 10 146 21 13 151 3 189 -15z"/>
<path d="M4968 3720 c-116 -35 -177 -127 -157 -235 15 -78 67 -127 193 -180
118 -49 162 -105 145 -183 -15 -69 -75 -104 -170 -101 -34 1 -83 12 -113 24
l-54 22 -11 -40 c-5 -23 -8 -44 -6 -48 8 -11 127 -40 180 -43 87 -4 176 27
227 81 60 63 71 179 23 252 -24 36 -108 101 -130 101 -27 0 -153 74 -167 98
-61 103 20 193 158 178 30 -3 68 -13 84 -21 l29 -15 11 41 c6 23 8 45 3 49
-28 25 -186 38 -245 20z"/>
<path d="M5506 3710 c-60 -24 -93 -53 -117 -105 -55 -118 4 -226 156 -290 107
-44 148 -74 163 -120 25 -76 -7 -140 -84 -165 -48 -16 -151 -7 -203 18 l-39
19 -15 -38 c-17 -42 -13 -50 37 -69 42 -16 94 -23 158 -23 144 2 243 78 255
197 12 113 -43 186 -185 247 -95 40 -135 69 -152 108 -42 101 68 186 199 152
25 -7 56 -14 67 -17 17 -5 23 0 28 19 3 14 8 32 12 40 15 41 -193 62 -280 27z"/>
<path d="M6660 3721 c-102 -31 -160 -105 -160 -203 0 -73 46 -143 115 -177 11
-5 59 -28 107 -50 74 -35 91 -47 107 -79 37 -75 3 -156 -77 -183 -46 -15 -145
-6 -203 19 l-45 20 -11 -41 c-9 -32 -9 -44 0 -49 31 -20 129 -41 189 -41 158
2 256 81 264 213 6 107 -47 172 -188 231 -104 44 -158 92 -158 142 0 54 19 84
66 108 52 24 119 24 181 -2 l42 -18 15 44 15 45 -51 15 c-54 16 -165 19 -208
6z"/>
<path d="M4265 3335 l0 -385 52 -1 c29 0 116 0 193 0 77 0 151 0 165 0 22 1
25 5 25 41 l0 40 -168 0 -168 0 1 138 0 137 150 5 150 5 -1 28 c-1 15 -2 32
-3 37 -1 6 -57 10 -146 10 -80 0 -146 3 -146 8 -1 4 -2 58 -3 119 -2 94 1 114
14 117 8 2 79 3 158 2 l142 -2 0 43 0 43 -208 0 -207 0 0 -385z"/>
<path d="M5955 3340 c1 -208 4 -382 7 -386 6 -5 236 -8 398 -5 28 1 30 3 30
41 l0 40 -167 0 -168 0 1 137 0 138 150 3 150 2 0 40 0 39 -150 3 -150 3 -1
110 c0 61 1 115 2 120 2 7 60 10 157 10 l154 -1 4 26 c9 62 16 60 -210 60
l-207 0 0 -380z"/>
<path d="M2893 2338 c-24 -12 -38 -41 -28 -58 4 -6 24 -19 46 -30 59 -31 49
-66 -18 -62 -33 3 -48 -17 -15 -20 9 0 24 -2 32 -3 24 -2 59 17 65 35 9 28 -4
46 -46 65 -25 12 -39 25 -39 37 0 18 14 23 58 19 12 -1 22 3 22 9 0 5 -3 10
-7 11 -5 0 -17 2 -28 4 -11 2 -30 -2 -42 -7z"/>
<path d="M3069 2343 c-37 -6 -60 -34 -66 -81 -5 -34 -1 -45 20 -66 14 -14 35
-27 47 -27 62 -4 74 -3 77 7 3 8 -10 12 -36 11 -51 -1 -81 24 -81 68 0 45 34
73 83 70 24 -2 37 1 34 8 -4 12 -38 16 -78 10z"/>
<path d="M3180 2260 c0 -73 3 -90 15 -90 11 0 15 11 15 40 l0 40 44 0 c47 0
54 -7 51 -52 -1 -18 3 -28 12 -28 11 0 13 18 11 85 -2 48 -7 85 -13 85 -5 0
-10 -15 -10 -32 0 -32 -1 -33 -47 -36 l-48 -3 0 34 c0 22 -6 37 -15 41 -13 4
-15 -9 -15 -84z"/>
<path d="M3415 2338 c-48 -29 -63 -78 -40 -131 16 -37 67 -51 124 -32 29 9 53
61 45 100 -10 55 -84 90 -129 63z m76 -26 c49 -40 15 -138 -44 -127 -57 11
-76 89 -31 124 33 26 45 26 75 3z"/>
<path d="M3620 2339 c-68 -25 -72 -131 -7 -163 59 -27 122 0 132 58 9 47 -1
74 -38 97 -35 21 -49 22 -87 8z m74 -30 c44 -35 29 -112 -24 -119 -35 -5 -50
2 -65 30 -19 36 -11 75 18 95 28 20 39 19 71 -6z"/>
<path d="M3787 2344 c-13 -13 -8 -174 6 -175 14 -2 78 -1 90 0 4 1 7 6 7 11 0
6 -19 10 -42 10 l-43 0 3 66 c2 64 -7 102 -21 88z"/>
<path d="M3986 2343 c-3 -3 -6 -35 -6 -70 0 -55 4 -67 25 -89 17 -17 32 -23
49 -20 63 11 81 44 74 136 -5 68 -22 50 -28 -29 -5 -75 -6 -76 -35 -84 -39
-12 -57 15 -56 87 0 61 -7 84 -23 69z"/>
<path d="M4176 2343 c-3 -4 -6 -44 -6 -90 0 -68 3 -83 15 -83 13 0 15 11 11
59 -2 33 -1 62 2 65 3 3 25 -23 48 -58 47 -70 59 -82 69 -66 9 14 9 155 0 170
-13 21 -20 -5 -19 -69 1 -34 0 -61 -1 -61 -1 0 -20 26 -41 59 -39 59 -67 85
-78 74z"/>
<path d="M4369 2343 c-1 -4 -2 -45 -3 -90 -1 -62 1 -83 11 -83 16 0 19 165 3
175 -5 3 -10 3 -11 -2z"/>
<path d="M4439 2345 c-1 0 -2 -39 -3 -87 -2 -67 1 -88 11 -88 12 0 17 23 14
61 -1 11 7 15 34 15 19 -1 35 4 35 9 0 9 -7 11 -52 14 -12 1 -18 9 -18 26 0
26 9 29 59 25 15 -1 22 3 19 12 -3 8 -22 13 -51 13 -26 1 -47 1 -48 0z"/>
<path d="M4613 2334 c-50 -25 -61 -99 -20 -141 40 -41 121 -32 147 16 28 54
-8 130 -65 137 -17 1 -44 -4 -62 -12z m90 -24 c5 -4 11 -25 14 -47 4 -33 1
-44 -17 -61 -22 -20 -29 -21 -67 -8 -47 15 -44 117 4 129 20 5 54 -1 66 -13z"/>
<path d="M4792 2341 c-7 -4 -11 -38 -11 -89 0 -65 3 -82 15 -82 9 0 14 11 14
35 0 27 4 35 18 35 26 0 40 -12 47 -43 8 -32 36 -38 30 -6 -2 12 -11 32 -20
45 -15 23 -11 28 16 26 8 -1 2 59 -8 69 -12 12 -86 19 -101 10z m72 -27 c9 -8
16 -19 16 -23 0 -15 -25 -31 -47 -31 -19 0 -23 5 -23 28 0 45 24 56 54 26z"/>
<path d="M4949 2343 c-3 -22 -8 -74 -12 -120 -2 -39 0 -53 10 -53 7 0 14 9 14
20 1 11 3 29 4 40 1 11 3 32 5 48 1 16 4 21 7 12 3 -8 14 -39 25 -67 11 -30
26 -53 34 -53 8 0 14 6 14 13 1 6 9 30 20 52 11 22 19 46 20 54 0 8 3 11 8 7
9 -9 9 -13 11 -76 1 -34 5 -50 14 -50 11 0 13 18 9 83 -2 45 -9 85 -15 89 -12
7 -37 -8 -37 -22 0 -4 -10 -31 -23 -60 l-23 -53 -24 64 c-21 60 -34 78 -52 79
-5 0 -9 -3 -9 -7z"/>
</g>
</svg>
